<mxfile host="65bd71144e">
    <diagram id="f4DtBq5DoTja8-W6IpRX" name="ページ1">
        <mxGraphModel dx="1556" dy="785" grid="1" gridSize="10" guides="1" tooltips="1" connect="1" arrows="1" fold="1" page="1" pageScale="1" pageWidth="827" pageHeight="1169" math="0" shadow="0">
            <root>
                <mxCell id="0"/>
                <mxCell id="1" parent="0"/>
                <mxCell id="EHAjcUKyv35D5FMJK02u-1" value="" style="shape=image;imageAspect=0;aspect=fixed;verticalLabelPosition=bottom;verticalAlign=top;image=data:image/svg+xml,PHN2ZyB4bWxucz0iaHR0cDovL3d3dy53My5vcmcvMjAwMC9zdmciIGlkPSJMYXllcl8xIiB2aWV3Qm94PSIwIDAgNjQgNjQiPjxkZWZzPjxzdHlsZT4uY2xzLTF7ZmlsbDojNWMyZDkxO30uY2xzLTIsLmNscy0ze2ZpbGw6I2ZmZjt9LmNscy0ye29wYWNpdHk6MC4xO30uY2xzLTR7ZmlsbDojZjJmMmYyO308L3N0eWxlPjwvZGVmcz48dGl0bGU+bG9nb19ORVRjb3JlPC90aXRsZT48Y2lyY2xlIGNsYXNzPSJjbHMtMSIgY3g9IjMyIiBjeT0iMzIiIHI9IjMyIi8+PHBhdGggY2xhc3M9ImNscy0yIiBkPSJNOS44Miw5QTMyLDMyLDAsMSwwLDU1LDU0LjE4WiIvPjxwYXRoIGNsYXNzPSJjbHMtMyIgZD0iTTcuNCwzNy4yNWExLjM1LDEuMzUsMCwwLDEtMS0uNDIsMS4zOCwxLjM4LDAsMCwxLS40MS0xLDEuNCwxLjQsMCwwLDEsLjQxLTEsMS4zNCwxLjM0LDAsMCwxLDEtLjQzLDEuMzcsMS4zNywwLDAsMSwxLC40MywxLjM5LDEuMzksMCwwLDEsLjQyLDEsMS4zNywxLjM3LDAsMCwxLS40MiwxQTEuMzgsMS4zOCwwLDAsMSw3LjQsMzcuMjVaIi8+PHBhdGggY2xhc3M9ImNscy0zIiBkPSJNMjcuMjcsMzdIMjQuNjVMMTUuMjgsMjIuNDZhNiw2LDAsMCwxLS41OC0xLjE0aC0uMDhhMTguNzIsMTguNzIsMCwwLDEsLjEsMi41VjM3SDEyLjU5VjE4Ljc3aDIuNzdsOS4xMiwxNC4yOHEuNTcuODkuNzQsMS4yMmguMDVhMTkuMjgsMTkuMjgsMCwwLDEtLjEzLTIuNjhWMTguNzdoMi4xM1oiLz48cGF0aCBjbGFzcz0iY2xzLTMiIGQ9Ik00MS42OSwzN0gzMlYxOC43N2g5LjI0VjIwLjdIMzQuMTh2Ni4wNmg2LjU4djEuOTJIMzQuMThWMzVoNy41MloiLz48cGF0aCBjbGFzcz0iY2xzLTMiIGQ9Ik01NiwyMC43SDUwLjdWMzdINDguNTdWMjAuN0g0My4zM1YxOC43N0g1NloiLz48cGF0aCBjbGFzcz0iY2xzLTQiIGQ9Ik0yNi4xMiw0OS40YTQuOTMsNC45MywwLDAsMS0yLjMyLjQ5LDMuNzQsMy43NCwwLDAsMS0yLjg3LTEuMTUsNC4yNiw0LjI2LDAsMCwxLTEuMDgtMyw0LjQ2LDQuNDYsMCwwLDEsMS4yMS0zLjI2LDQuMTIsNC4xMiwwLDAsMSwzLjA4LTEuMjQsNC45Myw0LjkzLDAsMCwxLDIsLjM1djFhNCw0LDAsMCwwLTItLjUsMy4wNiwzLjA2LDAsMCwwLTIuMzUsMSwzLjY0LDMuNjQsMCwwLDAtLjksMi41OCwzLjQ3LDMuNDcsMCwwLDAsLjg0LDIuNDUsMi44NiwyLjg2LDAsMCwwLDIuMjEuOTEsNC4xNCw0LjE0LDAsMCwwLDIuMTktLjU2WiIvPjxwYXRoIGNsYXNzPSJjbHMtNCIgZD0iTTMwLjIxLDQ5Ljg5QTIuNzgsMi43OCwwLDAsMSwyOC4wOCw0OWEzLjExLDMuMTEsMCwwLDEtLjc5LTIuMjMsMy4yNCwzLjI0LDAsMCwxLC44My0yLjM2LDMsMywwLDAsMSwyLjIzLS44NSwyLjY5LDIuNjksMCwwLDEsMi4wOS44MywzLjI4LDMuMjgsMCwwLDEsLjc1LDIuMjksMy4yMiwzLjIyLDAsMCwxLS44MSwyLjNBMi44NCwyLjg0LDAsMCwxLDMwLjIxLDQ5Ljg5Wm0uMDctNS40N2ExLjgzLDEuODMsMCwwLDAtMS40Ni42MywyLjU5LDIuNTksMCwwLDAtLjU0LDEuNzQsMi40NSwyLjQ1LDAsMCwwLC41NCwxLjY4LDEuODUsMS44NSwwLDAsMCwxLjQ2LjYyLDEuNzYsMS43NiwwLDAsMCwxLjQzLS42LDIuNjIsMi42MiwwLDAsMCwuNS0xLjcyLDIuNjYsMi42NiwwLDAsMC0uNS0xLjczQTEuNzUsMS43NSwwLDAsMCwzMC4yOCw0NC40MloiLz48cGF0aCBjbGFzcz0iY2xzLTQiIGQ9Ik0zNy44Niw0NC43MmExLjE4LDEuMTgsMCwwLDAtLjczLS4xOSwxLjIzLDEuMjMsMCwwLDAtMSwuNTgsMi42OCwyLjY4LDAsMCwwLS40MSwxLjU4djMuMDZoLTF2LTZoMVY0NWgwYTIuMSwyLjEsMCwwLDEsLjYzLTEsMS40MywxLjQzLDAsMCwxLC45NC0uMzUsMS41NywxLjU3LDAsMCwxLC41Ny4wOFoiLz48cGF0aCBjbGFzcz0iY2xzLTQiIGQ9Ik00My43Miw0N0gzOS40OUEyLjI0LDIuMjQsMCwwLDAsNDAsNDguNTRhMS44NiwxLjg2LDAsMCwwLDEuNDIuNTQsMywzLDAsMCwwLDEuODYtLjY3di45YTMuNDgsMy40OCwwLDAsMS0yLjA5LjU3LDIuNTQsMi41NCwwLDAsMS0yLS44MiwzLjM1LDMuMzUsMCwwLDEtLjczLTIuMywzLjI4LDMuMjgsMCwwLDEsLjc5LTIuMjgsMi41NSwyLjU1LDAsMCwxLDItLjg4LDIuMjYsMi4yNiwwLDAsMSwxLjgyLjc2LDMuMTgsMy4xOCwwLDAsMSwuNjQsMi4xMlptLTEtLjgxYTIsMiwwLDAsMC0uNC0xLjI5LDEuMzcsMS4zNywwLDAsMC0xLjEtLjQ2LDEuNTUsMS41NSwwLDAsMC0xLjE1LjQ5LDIuMjEsMi4yMSwwLDAsMC0uNTksMS4yN1oiLz48L3N2Zz4=;" parent="1" vertex="1">
                    <mxGeometry x="20" y="200" width="80" height="80" as="geometry"/>
                </mxCell>
                <mxCell id="EHAjcUKyv35D5FMJK02u-2" value="" style="shape=image;imageAspect=0;aspect=fixed;verticalLabelPosition=bottom;verticalAlign=top;image=data:image/svg+xml,PHN2ZyB4bWxucz0iaHR0cDovL3d3dy53My5vcmcvMjAwMC9zdmciIHdpZHRoPSI0NTYiIGhlaWdodD0iNDU2IiB2aWV3Qm94PSIwIDAgNDU2IDQ1NiIgZmlsbD0ibm9uZSI+JiN4YTs8cmVjdCB3aWR0aD0iNDU2IiBoZWlnaHQ9IjQ1NiIgZmlsbD0iIzUxMkJENCIvPiYjeGE7PHBhdGggZD0iTTgxLjI3MzggMjkxLjMzM0M3OC4wNDk2IDI5MS4zMzMgNzUuMzA5IDI5MC4yNTkgNzMuMDUyIDI4OC4xMUM3MC43OTUgMjg1LjkwNiA2OS42NjY1IDI4My4yODkgNjkuNjY2NSAyODAuMjU5QzY5LjY2NjUgMjc3LjE3MyA3MC43OTUgMjc0LjUyOSA3My4wNTIgMjcyLjMyNUM3NS4zMDkgMjcwLjEyMSA3OC4wNDk2IDI2OS4wMTkgODEuMjczOCAyNjkuMDE5Qzg0LjU1MTggMjY5LjAxOSA4Ny4zMTkzIDI3MC4xMjEgODkuNTc2MyAyNzIuMzI1QzkxLjg4NyAyNzQuNTI5IDkzLjA0MjQgMjc3LjE3MyA5My4wNDI0IDI4MC4yNTlDOTMuMDQyNCAyODMuMjg5IDkxLjg4NyAyODUuOTA2IDg5LjU3NjMgMjg4LjExQzg3LjMxOTMgMjkwLjI1OSA4NC41NTE4IDI5MS4zMzMgODEuMjczOCAyOTEuMzMzWiIgZmlsbD0id2hpdGUiLz4mI3hhOzxwYXRoIGQ9Ik0yMTAuMTY3IDI4OS41MTVIMTg5LjIwOUwxMzMuOTk0IDIwMi40MDZDMTMyLjU5NyAyMDAuMjAyIDEzMS40NDEgMTk3LjkxNSAxMzAuNTI4IDE5NS41NDZIMTMwLjA0NEMxMzAuNDc0IDE5OC4wODEgMTMwLjY4OSAyMDMuNTA4IDEzMC42ODkgMjExLjgyN1YyODkuNTE1SDExMi4xNDlWMTcxSDEzNC40NzdMMTg3LjgzOSAyNTYuMDQzQzE5MC4wOTYgMjU5LjU3IDE5MS41NDcgMjYxLjk5NCAxOTIuMTkyIDI2My4zMTZIMTkyLjUxNEMxOTEuOTc3IDI2MC4xNzYgMTkxLjcwOCAyNTQuODU5IDE5MS43MDggMjQ3LjM2NVYxNzFIMjEwLjE2N1YyODkuNTE1WiIgZmlsbD0id2hpdGUiLz4mI3hhOzxwYXRoIGQ9Ik0zMDAuNDQ5IDI4OS41MTVIMjM1LjU2MVYxNzFIMjk3Ljg3VjE4Ny42OTVIMjU0Ljc0NlYyMjEuMjQ5SDI5NC40ODVWMjM3Ljg2MUgyNTQuNzQ2VjI3Mi45MDNIMzAwLjQ0OVYyODkuNTE1WiIgZmlsbD0id2hpdGUiLz4mI3hhOzxwYXRoIGQ9Ik0zOTIuNjY3IDE4Ny42OTVIMzU5LjQ1N1YyODkuNTE1SDM0MC4yNzJWMTg3LjY5NUgzMDcuMTQzVjE3MUgzOTIuNjY3VjE4Ny42OTVaIiBmaWxsPSJ3aGl0ZSIvPiYjeGE7PC9zdmc+;" parent="1" vertex="1">
                    <mxGeometry x="400" y="200" width="80" height="80" as="geometry"/>
                </mxCell>
                <mxCell id="EHAjcUKyv35D5FMJK02u-3" value="" style="endArrow=classic;html=1;exitX=1;exitY=0.5;exitDx=0;exitDy=0;entryX=0;entryY=0.5;entryDx=0;entryDy=0;fillColor=#76608a;strokeColor=#cccccc;startArrow=none;" parent="1" source="EHAjcUKyv35D5FMJK02u-22" target="EHAjcUKyv35D5FMJK02u-2" edge="1">
                    <mxGeometry width="50" height="50" relative="1" as="geometry">
                        <mxPoint x="390" y="510" as="sourcePoint"/>
                        <mxPoint x="440" y="460" as="targetPoint"/>
                    </mxGeometry>
                </mxCell>
                <mxCell id="EHAjcUKyv35D5FMJK02u-4" value="&lt;font face=&quot;Noto Sans JP&quot; data-font-src=&quot;https://fonts.googleapis.com/css?family=Noto+Sans+JP&quot; style=&quot;font-size: 18px&quot;&gt;.NET Framework&lt;/font&gt;" style="rounded=1;whiteSpace=wrap;html=1;fillColor=#1ba1e2;strokeColor=#006EAF;fontColor=#ffffff;" parent="1" vertex="1">
                    <mxGeometry x="10" y="340" width="160" height="40" as="geometry"/>
                </mxCell>
                <mxCell id="EHAjcUKyv35D5FMJK02u-5" value="" style="endArrow=none;html=1;exitX=1;exitY=0.5;exitDx=0;exitDy=0;fillColor=#76608a;strokeColor=#cccccc;endFill=0;" parent="1" source="EHAjcUKyv35D5FMJK02u-4" edge="1">
                    <mxGeometry width="50" height="50" relative="1" as="geometry">
                        <mxPoint x="120" y="290" as="sourcePoint"/>
                        <mxPoint x="440" y="360" as="targetPoint"/>
                    </mxGeometry>
                </mxCell>
                <mxCell id="EHAjcUKyv35D5FMJK02u-7" value="&lt;font face=&quot;Noto Sans JP&quot; data-font-src=&quot;https://fonts.googleapis.com/css?family=Noto+Sans+JP&quot; style=&quot;font-size: 18px&quot;&gt;.NET 5&lt;br&gt;2020/11&lt;br&gt;&lt;/font&gt;" style="text;html=1;strokeColor=none;fillColor=none;align=center;verticalAlign=middle;whiteSpace=wrap;rounded=0;fontColor=#FFFFFF;" parent="1" vertex="1">
                    <mxGeometry x="405" y="150" width="70" height="40" as="geometry"/>
                </mxCell>
                <mxCell id="EHAjcUKyv35D5FMJK02u-8" value="" style="endArrow=classic;html=1;exitX=1;exitY=0.5;exitDx=0;exitDy=0;fillColor=#76608a;strokeColor=#cccccc;" parent="1" source="EHAjcUKyv35D5FMJK02u-12" target="EHAjcUKyv35D5FMJK02u-15" edge="1">
                    <mxGeometry width="50" height="50" relative="1" as="geometry">
                        <mxPoint x="120" y="250" as="sourcePoint"/>
                        <mxPoint x="800" y="240" as="targetPoint"/>
                    </mxGeometry>
                </mxCell>
                <mxCell id="EHAjcUKyv35D5FMJK02u-9" value="" style="endArrow=classic;html=1;entryX=0.5;entryY=1;entryDx=0;entryDy=0;endFill=1;strokeColor=#cccccc;" parent="1" target="EHAjcUKyv35D5FMJK02u-2" edge="1">
                    <mxGeometry width="50" height="50" relative="1" as="geometry">
                        <mxPoint x="440" y="360" as="sourcePoint"/>
                        <mxPoint x="440" y="360" as="targetPoint"/>
                    </mxGeometry>
                </mxCell>
                <mxCell id="EHAjcUKyv35D5FMJK02u-10" value="&lt;font face=&quot;Noto Sans JP&quot; data-font-src=&quot;https://fonts.googleapis.com/css?family=Noto+Sans+JP&quot; style=&quot;font-size: 18px&quot;&gt;Mono / Xamarin&lt;/font&gt;" style="rounded=1;whiteSpace=wrap;html=1;fillColor=#d80073;strokeColor=#A50040;fontColor=#ffffff;" parent="1" vertex="1">
                    <mxGeometry x="460" y="290" width="160" height="40" as="geometry"/>
                </mxCell>
                <mxCell id="EHAjcUKyv35D5FMJK02u-12" value="" style="ellipse;whiteSpace=wrap;html=1;aspect=fixed;fillColor=#cccccc;strokeColor=none;" parent="1" vertex="1">
                    <mxGeometry x="620" y="230" width="20" height="20" as="geometry"/>
                </mxCell>
                <mxCell id="EHAjcUKyv35D5FMJK02u-13" value="" style="endArrow=none;html=1;exitX=1;exitY=0.5;exitDx=0;exitDy=0;fillColor=#76608a;strokeColor=#cccccc;endFill=0;" parent="1" source="EHAjcUKyv35D5FMJK02u-2" target="EHAjcUKyv35D5FMJK02u-12" edge="1">
                    <mxGeometry width="50" height="50" relative="1" as="geometry">
                        <mxPoint x="550" y="240" as="sourcePoint"/>
                        <mxPoint x="800" y="240" as="targetPoint"/>
                    </mxGeometry>
                </mxCell>
                <mxCell id="EHAjcUKyv35D5FMJK02u-14" value="&lt;font face=&quot;Noto Sans JP&quot; data-font-src=&quot;https://fonts.googleapis.com/css?family=Noto+Sans+JP&quot; style=&quot;font-size: 18px&quot;&gt;.NET 6 (LTS)&lt;br&gt;2021/11&lt;br&gt;&lt;/font&gt;" style="text;html=1;strokeColor=none;fillColor=none;align=center;verticalAlign=middle;whiteSpace=wrap;rounded=0;fontColor=#FFFFFF;" parent="1" vertex="1">
                    <mxGeometry x="580" y="150" width="100" height="40" as="geometry"/>
                </mxCell>
                <mxCell id="EHAjcUKyv35D5FMJK02u-15" value="&lt;font face=&quot;Noto Sans JP&quot; data-font-src=&quot;https://fonts.googleapis.com/css?family=Noto+Sans+JP&quot; style=&quot;font-size: 18px&quot;&gt;2022年6月現在&lt;/font&gt;" style="text;html=1;strokeColor=none;fillColor=none;align=center;verticalAlign=middle;whiteSpace=wrap;rounded=0;fontColor=#FFFFFF;" parent="1" vertex="1">
                    <mxGeometry x="780" y="230" width="100" height="20" as="geometry"/>
                </mxCell>
                <mxCell id="EHAjcUKyv35D5FMJK02u-17" value="" style="endArrow=classic;html=1;strokeColor=#cccccc;exitX=1;exitY=0.5;exitDx=0;exitDy=0;edgeStyle=orthogonalEdgeStyle;entryX=0.5;entryY=1;entryDx=0;entryDy=0;" parent="1" source="EHAjcUKyv35D5FMJK02u-10" target="EHAjcUKyv35D5FMJK02u-12" edge="1">
                    <mxGeometry width="50" height="50" relative="1" as="geometry">
                        <mxPoint x="390" y="400" as="sourcePoint"/>
                        <mxPoint x="746" y="250" as="targetPoint"/>
                    </mxGeometry>
                </mxCell>
                <mxCell id="EHAjcUKyv35D5FMJK02u-19" value="" style="endArrow=classic;html=1;dashed=1;strokeColor=#cccccc;" parent="1" edge="1">
                    <mxGeometry width="50" height="50" relative="1" as="geometry">
                        <mxPoint x="440" y="360" as="sourcePoint"/>
                        <mxPoint x="780" y="360" as="targetPoint"/>
                    </mxGeometry>
                </mxCell>
                <mxCell id="EHAjcUKyv35D5FMJK02u-23" value="&lt;font face=&quot;Noto Sans JP&quot; data-font-src=&quot;https://fonts.googleapis.com/css?family=Noto+Sans+JP&quot; style=&quot;font-size: 18px&quot;&gt;.NET Core 3.0&lt;br&gt;2019/9&lt;br&gt;&lt;/font&gt;" style="text;html=1;strokeColor=none;fillColor=none;align=center;verticalAlign=middle;whiteSpace=wrap;rounded=0;fontColor=#FFFFFF;" parent="1" vertex="1">
                    <mxGeometry x="190" y="150" width="120" height="40" as="geometry"/>
                </mxCell>
                <mxCell id="EHAjcUKyv35D5FMJK02u-27" value="" style="endArrow=classic;html=1;entryX=0.5;entryY=1;entryDx=0;entryDy=0;fillColor=#76608a;strokeColor=#cccccc;" parent="1" target="EHAjcUKyv35D5FMJK02u-22" edge="1">
                    <mxGeometry width="50" height="50" relative="1" as="geometry">
                        <mxPoint x="250" y="360" as="sourcePoint"/>
                        <mxPoint x="490" y="250" as="targetPoint"/>
                    </mxGeometry>
                </mxCell>
                <mxCell id="EHAjcUKyv35D5FMJK02u-25" value="&lt;font face=&quot;Noto Sans JP&quot; data-font-src=&quot;https://fonts.googleapis.com/css?family=Noto+Sans+JP&quot; style=&quot;font-size: 18px&quot;&gt;Windows Form / WPF&lt;/font&gt;" style="rounded=1;whiteSpace=wrap;html=1;fillColor=#1ba1e2;strokeColor=#006EAF;fontColor=#ffffff;" parent="1" vertex="1">
                    <mxGeometry x="150" y="290" width="200" height="40" as="geometry"/>
                </mxCell>
                <mxCell id="EHAjcUKyv35D5FMJK02u-29" value="&lt;font face=&quot;Noto Sans JP&quot; data-font-src=&quot;https://fonts.googleapis.com/css?family=Noto+Sans+JP&quot; style=&quot;font-size: 18px&quot;&gt;メンテナンスのみ継続&lt;br&gt;&lt;/font&gt;" style="text;html=1;strokeColor=none;fillColor=none;align=center;verticalAlign=middle;whiteSpace=wrap;rounded=0;fontColor=#FFFFFF;" parent="1" vertex="1">
                    <mxGeometry x="520" y="360" width="220" height="20" as="geometry"/>
                </mxCell>
                <mxCell id="EHAjcUKyv35D5FMJK02u-33" value="&lt;font face=&quot;Noto Sans JP&quot; data-font-src=&quot;https://fonts.googleapis.com/css?family=Noto+Sans+JP&quot; style=&quot;font-size: 18px&quot;&gt;.NET Core 1.0&lt;br&gt;2016/6&lt;br&gt;&lt;/font&gt;" style="text;html=1;strokeColor=none;fillColor=none;align=center;verticalAlign=middle;whiteSpace=wrap;rounded=0;fontColor=#FFFFFF;" parent="1" vertex="1">
                    <mxGeometry y="150" width="120" height="40" as="geometry"/>
                </mxCell>
                <mxCell id="EHAjcUKyv35D5FMJK02u-22" value="" style="ellipse;whiteSpace=wrap;html=1;aspect=fixed;fillColor=#cccccc;strokeColor=none;" parent="1" vertex="1">
                    <mxGeometry x="240" y="230" width="20" height="20" as="geometry"/>
                </mxCell>
                <mxCell id="2" value="" style="endArrow=none;html=1;exitX=1;exitY=0.5;exitDx=0;exitDy=0;entryX=0;entryY=0.5;entryDx=0;entryDy=0;fillColor=#76608a;strokeColor=#cccccc;" parent="1" source="EHAjcUKyv35D5FMJK02u-1" target="EHAjcUKyv35D5FMJK02u-22" edge="1">
                    <mxGeometry width="50" height="50" relative="1" as="geometry">
                        <mxPoint x="100" y="240" as="sourcePoint"/>
                        <mxPoint x="400" y="240" as="targetPoint"/>
                    </mxGeometry>
                </mxCell>
            </root>
        </mxGraphModel>
    </diagram>
</mxfile>